<?xml version="1.0" encoding="UTF-8" standalone="no"?>
<!-- Created with Inkscape (http://www.inkscape.org/) -->

<svg
   width="210mm"
   height="297mm"
   viewBox="0 0 210 297"
   version="1.1"
   id="svg1"
   xml:space="preserve"
   xmlns="http://www.w3.org/2000/svg"
   xmlns:svg="http://www.w3.org/2000/svg"><defs
     id="defs1" /><g
     id="layer1"><g
       transform="matrix(0.02286989,0,0,-0.02183821,-12.082062,233.05567)"
       fill="#000000"
       stroke="none"
       id="g6"><path
         d="m 3735,9103 c -32,-8 -84,-51 -101,-84 -23,-46 -23,-843 1,-889 26,-50 85,-82 153,-83 73,0 118,24 150,81 22,39 22,45 22,440 0,258 -4,411 -11,429 -30,81 -124,128 -214,106 z"
         id="path1" /><path
         d="m 1830,8389 c -32,-13 -78,-56 -96,-91 -18,-34 -18,-99 0,-141 7,-18 135,-154 282,-304 230,-232 276,-274 318,-289 42,-15 55,-16 95,-5 49,13 94,49 117,93 18,35 18,112 -1,152 -23,48 -542,562 -587,581 -42,17 -91,19 -128,4 z"
         id="path2" /><path
         d="m 5621,8385 c -36,-16 -556,-538 -580,-584 -8,-14 -15,-49 -15,-77 -2,-125 133,-211 242,-155 20,11 159,142 309,293 290,292 304,311 289,391 -20,109 -144,175 -245,132 z"
         id="path3" /><path
         d="m 3645,7849 c -275,-19 -577,-122 -805,-274 -258,-173 -443,-383 -580,-660 -125,-254 -173,-465 -172,-765 0,-210 23,-355 81,-530 176,-527 624,-946 1141,-1066 41,-10 76,-18 77,-19 1,0 -25,-30 -58,-66 -80,-84 -189,-250 -230,-347 -17,-42 -41,-116 -53,-164 l -20,-86 -72,-11 c -337,-50 -626,-269 -775,-586 -70,-148 -83,-214 -83,-420 0,-210 15,-278 89,-431 128,-263 349,-453 632,-541 l 88,-28 h 2530 c 2077,0 2542,2 2595,13 293,61 573,221 798,457 169,177 289,375 362,594 121,364 98,743 -65,1086 -205,431 -619,746 -1082,825 -63,11 -142,20 -174,20 -32,0 -59,2 -59,5 0,3 -7,41 -15,83 -53,261 -195,541 -390,764 -245,282 -612,498 -980,577 -271,58 -621,51 -853,-19 -72,-21 -68,-26 -76,80 -14,161 -74,380 -153,550 -124,267 -333,510 -583,675 -331,220 -693,312 -1115,284 z m 260,-319 c 412,-37 762,-226 996,-537 151,-200 235,-410 264,-663 8,-69 15,-147 15,-175 v -50 l -93,-62 c -203,-135 -391,-315 -522,-498 -131,-183 -234,-427 -271,-641 l -17,-99 -341,1 c -308,1 -351,4 -445,23 -471,99 -877,458 -1016,901 -43,137 -57,217 -62,361 -17,413 122,776 403,1051 254,249 576,382 959,396 17,1 75,-3 130,-8 z M 6335,5961 c 131,-31 206,-57 332,-116 218,-103 416,-265 559,-458 178,-241 274,-533 274,-836 v -88 l 68,13 c 467,93 868,-57 1141,-426 218,-294 280,-694 162,-1043 -143,-421 -520,-748 -947,-822 -79,-14 -366,-15 -2514,-12 -2310,2 -2428,3 -2485,21 -181,54 -354,195 -432,353 -57,113 -77,209 -71,337 18,361 306,644 673,663 114,5 160,17 193,47 38,34 52,71 52,138 1,258 172,515 431,644 80,40 176,65 280,71 108,6 190,-5 306,-43 112,-37 176,-24 220,43 15,22 19,59 24,193 11,285 72,473 229,709 221,330 582,558 995,627 119,20 394,12 510,-15 z"
         id="path4" /><path
         d="m 975,6393 c -35,-9 -87,-54 -101,-89 -36,-85 -1,-191 75,-231 44,-23 47,-23 423,-23 360,0 381,1 418,20 130,66 122,268 -13,319 -28,11 -759,14 -802,4 z"
         id="path5" /><path
         d="m 2205,4871 c -16,-10 -145,-135 -286,-278 -210,-211 -259,-266 -268,-298 -15,-54 -14,-73 8,-121 36,-78 115,-116 198,-94 44,11 69,34 311,278 145,147 271,280 279,296 20,39 13,128 -14,164 -11,15 -35,37 -53,50 -43,29 -131,31 -175,3 z"
         id="path6" /></g><path
       style="fill:#ffcc00;stroke:#78d474;stroke-width:1.43361;stroke-opacity:0.258824"
       d="m 250.88243,480.16253 c -38.74544,-10.1168 -71.32705,-39.74956 -82.52411,-75.05514 -12.24187,-38.59998 -1.02237,-82.3685 28.48412,-111.11965 53.1166,-51.75687 144.34346,-43.34199 185.45354,17.10648 9.37396,13.78351 14.04652,25.92937 17.09704,44.44203 3.36227,20.4046 3.62152,19.65061 -9.85691,28.66583 -14.26407,9.5407 -33.58335,27.72481 -41.89239,39.43083 -10.92027,15.38481 -20.75926,38.06736 -23.00319,53.0309 l -0.96935,6.46407 -31.01832,-0.0789 c -26.00572,-0.0662 -32.75588,-0.53263 -41.77043,-2.88642 z"
       id="path7"
       transform="scale(0.26458333)" /><path
       style="fill:#cccccc;stroke:#78d474;stroke-width:1.43361;stroke-opacity:0.258824"
       d="m 219.34293,699.74322 c -16.94809,-1.06868 -27.18463,-5.62345 -38.77096,-17.25121 -12.1213,-12.16464 -14.98956,-19.18392 -14.98956,-36.68279 0,-13.308 0.34341,-15.06729 4.64674,-23.80516 9.30292,-18.88952 26.40883,-30.00659 50.54739,-32.85061 19.64053,-2.31406 22.00391,-4.31913 23.34046,-19.80186 2.01113,-23.29713 22.48364,-46.04787 47.40866,-52.68441 9.63135,-2.56445 24.02763,-2.50049 33.9047,0.15063 4.33668,1.16402 10.84924,2.12405 14.47234,2.13341 10.12178,0.0261 11.57447,-2.44855 12.99842,-22.14313 2.226,-30.78769 11.18226,-49.85971 34.02658,-72.45838 15.72349,-15.5544 28.17843,-23.30058 48.18656,-29.969 32.39813,-10.79783 64.50672,-9.16269 94.78551,4.82697 42.59638,19.68074 68.75615,56.45358 71.76055,100.87396 0.86085,12.728 1.04835,13.32524 3.90652,12.44302 1.65124,-0.50968 10.74378,-1.27033 20.20563,-1.69032 20.36337,-0.90389 31.4423,1.19463 47.98645,9.08939 14.40021,6.87169 34.31266,26.61816 41.31213,40.96779 13.54742,27.7736 13.55221,55.74259 0.0142,82.80112 -4.87327,9.74023 -8.69279,14.77513 -19.0325,25.0886 -14.66204,14.62486 -23.92191,20.59466 -41.95031,27.04514 l -12.56019,4.49401 -204.28998,0.14081 c -112.35949,0.0774 -210.41868,-0.24565 -217.90931,-0.71798 z"
       id="path8"
       transform="scale(0.26458333)" /></g></svg>
